<?xml version="1.0" encoding="UTF-8" standalone="no"?><!DOCTYPE svg PUBLIC "-//W3C//DTD SVG 1.1//EN" "http://www.w3.org/Graphics/SVG/1.1/DTD/svg11.dtd"><svg width="100%" height="100%" viewBox="0 0 501 503" version="1.1" xmlns="http://www.w3.org/2000/svg" xmlns:xlink="http://www.w3.org/1999/xlink" xml:space="preserve" xmlns:serif="http://www.serif.com/" style="fill-rule:evenodd;clip-rule:evenodd;stroke-linejoin:round;stroke-miterlimit:2;"><g><g><path d="M342.427,140.599c0.121,-0.982 -0.257,-1.757 -0.854,-2.335c2.444,-24.962 -3.359,-51.418 -8.122,-75.295c-2.192,-10.999 -7.875,-25.576 -18.841,-30.931c-12.331,-6.018 -27.201,1.667 -36.096,10.03c-13.097,12.31 -22.489,28.688 -30.356,44.671c-7.835,15.919 -15.708,31.703 -21.484,48.54c-10.93,31.877 -15.719,67.052 -34.533,95.858c-0.721,0.465 -1.207,1.216 -1.336,2.021c-0.302,0.439 -0.57,0.892 -0.879,1.328c-0.463,0.656 0.398,1.288 0.999,1.009c0.183,-0.084 0.328,-0.202 0.505,-0.291c0.305,0.31 0.68,0.573 1.228,0.703c14.611,3.41 34.042,-5.281 47.486,-10.707c15.932,-6.43 31.608,-13.077 45.689,-23.067c17.054,-12.1 39.597,-24.768 50.484,-43.713c0.832,-0.362 1.544,-1.086 1.9,-2.302c0.298,-1.028 0.534,-2.072 0.798,-3.109c1.652,-3.88 2.871,-7.983 3.412,-12.41Z" style="fill:#fff;fill-rule:nonzero;"/><path d="M456.476,110.929c6.08,-16.138 5.896,-34.37 -3.767,-49.245c-18.861,-29.042 -57.782,-11.276 -77.757,6.614c-26.507,23.742 -50.643,51.56 -74.294,78.097c-15.225,17.082 -28.897,33.682 -47.708,47.25c-2.79,2.014 -28.642,18.986 -40.324,26.947c-0.014,-0.008 -0.02,-0.02 -0.034,-0.029c-0.119,-0.074 -0.229,-0.165 -0.348,-0.241c-1.054,-1.03 -2.1,-2.076 -3.159,-3.092c-0.612,-0.587 -1.349,-0.734 -2.046,-0.63c-10.301,-8.056 -19.123,-18.978 -29.134,-27.089c-9.788,-7.932 -20.951,-15.991 -32.743,-20.623c-12.29,-4.827 -23.971,-5.16 -35.157,2.372c-11.375,7.66 -8.055,20.594 -16.352,29.366c-4.554,2.322 -8.874,5.074 -13.284,7.701c-1.292,0.772 -0.961,2.604 0.386,3.075c13.328,4.641 29.245,0.84 34.848,17.763c3.714,11.211 3.027,25.861 4.563,37.549c3.224,24.536 8.452,53.63 25.242,73.005c24.488,28.259 69.9,38.784 106.128,30.288c-0.064,0.644 0.033,1.31 0.444,2.02c0.732,2.148 1.337,4.332 1.819,6.55c1.123,4.279 2.04,8.59 2.97,12.912c1.831,8.524 2.642,16.787 3.837,25.411c1.656,11.959 2.68,27.967 11.237,37.273c11.99,13.044 24.554,7.624 28.229,-4.383c4.649,11.643 13.067,23.252 25.501,23.32c17.932,0.094 18.358,-18.453 15.426,-32.379c11.544,11.885 29.411,20.184 43.25,7.326c14.245,-13.234 4.344,-24.659 -6.39,-34.015c18.175,1.352 31.152,-20.109 17.367,-36.639c-9.34,-11.203 -27.874,-14.836 -41.04,-17.852c-18.096,-4.147 -41.223,-6.779 -56.153,-19.332c4.204,-0.326 8.402,-0.886 12.572,-1.673c25.685,-4.838 56.058,-17.72 71.65,-39.674c4.513,-6.354 9.134,-15.95 6.874,-24.114c-0.19,-0.834 -0.436,-1.661 -0.794,-2.477c-1.394,-3.178 -3.452,-5.049 -5.855,-6.001c20.003,-7.202 41.613,-15.607 49.625,-36.535c4.945,-12.913 0.116,-24.027 -9.831,-26.468c11.795,-6.368 24.143,-16.046 28.191,-27.006c5.909,-16.008 -11.508,-34.24 -27.041,-27.711c15.898,-9.523 26.307,-19.728 33.052,-37.631Z" style="fill:#fff;fill-rule:nonzero;"/><path d="M379.664,170.527c16.424,-5.211 33.407,-12.857 47.062,-23.432c0.979,-0.757 -0.251,-2.09 -1.235,-1.621c-15.622,7.434 -30.776,16.316 -46.106,24.379c-0.365,0.193 -0.12,0.799 0.279,0.674Z" style="fill:#df040b;fill-rule:nonzero;"/><path d="M375.43,223.87c19.054,-4.8 38.795,-9.635 53.699,-23.501c1.052,-0.98 -0.265,-2.437 -1.442,-1.891c-17.465,8.109 -33.668,19.448 -52.448,24.683c-0.454,0.127 -0.268,0.825 0.191,0.709Z" style="fill:#df040b;fill-rule:nonzero;"/><path d="M345.129,276.186c16.977,-0.558 34.411,-6.105 48.788,-15.275c1.287,-0.82 0.507,-3.171 -1.078,-2.601c-16.084,5.782 -30.327,14.829 -47.704,16.946c-0.574,0.07 -0.619,0.95 -0.006,0.93Z" style="fill:#df040b;fill-rule:nonzero;"/><path d="M274.398,333.808c13.259,5.09 28.578,10.588 42.075,3.049c1.38,-0.772 0.452,-2.854 -1.043,-2.51c-13.782,3.185 -27.077,1.468 -40.807,-1.34c-0.53,-0.109 -0.723,0.61 -0.225,0.801Z" style="fill:#df040b;fill-rule:nonzero;"/><path d="M232.808,372.521c8.984,2.791 24.502,1.995 31.698,-4.762c1.047,-0.982 -0.067,-2.401 -1.275,-2.215c-4.792,0.744 -9.22,3.377 -14,4.531c-5.42,1.309 -10.868,1.551 -16.382,2.159c-0.158,0.017 -0.21,0.236 -0.041,0.287Z" style="fill:#df040b;fill-rule:nonzero;"/><path d="M278.919,385.97c1.066,8.59 4.711,16.761 7.841,24.782c3.219,8.259 6.38,16.465 10.989,24.066c0.801,1.323 3.011,0.496 2.554,-1.061c-2.318,-7.909 -5.729,-15.336 -8.944,-22.908c-3.556,-8.359 -6.456,-17.555 -11.527,-25.12c-0.238,-0.357 -0.978,-0.284 -0.913,0.241Z" style="fill:#df040b;fill-rule:nonzero;"/><path d="M298.613,387.436c4.918,8.317 12.545,15.443 19.402,22.161c7.071,6.926 14.225,13.845 22.488,19.337c1.407,0.936 2.94,-1.123 1.791,-2.296c-7.172,-7.327 -15.21,-13.757 -22.638,-20.827c-6.667,-6.347 -12.861,-13.656 -20.2,-19.209c-0.505,-0.38 -1.134,0.339 -0.843,0.834Z" style="fill:#df040b;fill-rule:nonzero;"/><path d="M301.295,370.439c17.521,17.574 42.984,31.727 68.184,33.014c1.473,0.076 1.687,-2.074 0.354,-2.496c-24.828,-7.873 -46.515,-15.986 -67.82,-31.438c-0.547,-0.396 -1.178,0.457 -0.718,0.92Z" style="fill:#df040b;fill-rule:nonzero;"/><path d="M211.05,215.522c-1.013,0.194 -1.776,0.694 -2.838,0.263c-0.815,-0.327 -1.466,-0.971 -2.109,-1.541c-1.126,-1.001 -2.42,-2.083 -3.872,-2.543c-0.363,-0.115 -0.546,0.391 -0.253,0.591c1.194,0.811 2.396,1.635 3.46,2.61c0.665,0.608 1.279,1.181 2.078,1.62c1.373,0.756 2.683,0.7 3.894,-0.375c0.298,-0.264 -0.021,-0.691 -0.36,-0.625Z" style="fill:#df040b;fill-rule:nonzero;"/><path d="M362.621,76.566c-27.352,24.634 -49.543,55.047 -74.749,81.736c-22.631,23.963 -49.919,42.396 -78.374,58.494c-0.327,0.185 -0.129,0.762 0.25,0.632c28.591,-9.737 54.143,-29.83 75.432,-50.836c28,-27.626 52.25,-59.508 78.931,-88.471c0.933,-1.014 -0.453,-2.488 -1.49,-1.555Z" style="fill:#df040b;fill-rule:nonzero;"/><path d="M123.22,192.035c-2.12,1.147 -2.968,3.868 -5.856,3.067c-1.632,-0.453 -3.719,-1.745 -4.498,-3.269c-0.442,-0.865 -1.581,-0.363 -1.67,0.443c-0.312,2.823 3.1,5.232 5.486,5.923c3.956,1.142 7.043,-1.15 8.271,-4.818c0.339,-1.017 -0.865,-1.815 -1.733,-1.346Z" style="fill:#df040b;fill-rule:nonzero;"/><path d="M98.815,230.913c-7.782,-7.678 -16.005,-15.634 -22.469,-24.565c4.537,-3.119 8.567,-21.803 3.391,-26.188c-3.41,-2.888 -5.908,1.066 -6.769,4.087c-1.204,4.231 -1.755,9.691 -1.447,14.796c-5.997,-9.849 -11.526,-21.423 -15.552,-31.748c-0.127,-0.33 -0.713,-0.336 -0.678,0.088c0.499,6.158 3.319,12.496 5.751,18.158c0.382,0.892 0.768,1.786 1.156,2.68c-2.319,-4.08 -7.023,-6.755 -11.506,-8.035c-4.294,-1.226 -8.898,-1.383 -10.12,3.808c-0.928,3.95 2.284,7.801 5.548,9.653c5.154,2.921 12.989,1.254 18.708,0.427c1.808,3.863 3.775,7.654 6.097,11.206c3.285,5.026 6.969,9.847 11.265,14.026c0.449,0.437 0.883,0.892 1.319,1.345c-4.833,-2.899 -9.93,-4.914 -15.684,-6.13c-4.227,-0.892 -10.628,-1.092 -8.886,5.265c1.571,5.739 9.442,8.191 14.496,9.081c4.912,0.865 12.546,1.972 16.988,-0.906c2.038,1.948 4.237,3.691 6.866,4.907c1.217,0.563 2.606,-0.89 1.526,-1.955Z" style="fill:#df040b;fill-rule:nonzero;"/><path d="M64.494,191.025c-0.514,-1.817 -3.698,-2.525 -5.276,-3.042c-2.896,-0.949 -6.475,-1.262 -9.458,-0.62c-0.362,0.076 -0.379,0.67 -0.004,0.743c4.546,0.885 9.684,0.573 13.544,3.605c0.517,0.406 1.405,0.065 1.194,-0.686Z" style="fill:#fff;fill-rule:nonzero;"/><path d="M76.044,189.015c-0.008,-0.186 -0.287,-0.191 -0.293,-0.002c-0.096,3.053 -0.628,6.368 -1.972,9.117c-0.823,1.688 -1.734,2.915 -1.845,4.828c-0.063,1.115 1.654,1.115 1.73,0.011c0.162,-2.386 2.017,-4.406 2.57,-6.758c0.594,-2.521 -0.078,-4.692 -0.19,-7.196Z" style="fill:#fff;fill-rule:nonzero;"/><path d="M88.968,224.95c-3.08,-2.091 -7.076,-1.772 -10.659,-1.731c-2.399,0.028 -4.657,-0.101 -6.969,-0.825c-1.762,-0.551 -2.372,-1.168 -3.972,-0.735c-0.136,0.036 -0.141,0.205 -0.038,0.279c2.214,1.602 4.794,2.663 7.526,2.955c4.411,0.472 9.123,-0.64 13.225,1.556c0.993,0.534 1.812,-0.87 0.887,-1.499Z" style="fill:#fff;fill-rule:nonzero;"/></g></g></svg>